<svg width="24" height="24" viewBox="0 0 24 24" fill="none" xmlns="http://www.w3.org/2000/svg">
<path fill-rule="evenodd" clip-rule="evenodd" d="M4.5 2.75006C3.80964 2.75006 3.25 3.30971 3.25 4.00006C3.25 4.69042 3.80964 5.25006 4.5 5.25006C5.19036 5.25006 5.75 4.69042 5.75 4.00006C5.75 3.30971 5.19036 2.75006 4.5 2.75006ZM1.75 4.00006C1.75 2.48128 2.98122 1.25006 4.5 1.25006C6.01878 1.25006 7.25 2.48128 7.25 4.00006C7.25 5.51884 6.01878 6.75006 4.5 6.75006C2.98122 6.75006 1.75 5.51884 1.75 4.00006Z" fill="#5DE4A3"/>
<path fill-rule="evenodd" clip-rule="evenodd" d="M1.75 9.00006C1.75 8.58585 2.08579 8.25006 2.5 8.25006H6.5C6.91421 8.25006 7.25 8.58585 7.25 9.00006V21.5001C7.25 21.9143 6.91421 22.2501 6.5 22.2501H2.5C2.08579 22.2501 1.75 21.9143 1.75 21.5001V9.00006ZM3.25 9.75006V20.7501H5.75V9.75006H3.25Z" fill="#5DE4A3"/>
<path fill-rule="evenodd" clip-rule="evenodd" d="M11.288 10.3089C12.3169 9.17353 13.8859 8.25 16 8.25C18.1141 8.25 19.6831 9.17353 20.712 10.3089C21.7134 11.4138 22.25 12.7737 22.25 13.75V21.5C22.25 21.9142 21.9142 22.25 21.5 22.25H18C17.5858 22.25 17.25 21.9142 17.25 21.5V14.5C17.25 14.1705 17.1205 13.7707 16.879 13.4634C16.647 13.1681 16.3497 13 16 13C15.5924 13 15.303 13.1553 15.1038 13.3907C14.894 13.6386 14.75 14.0199 14.75 14.5V21.5C14.75 21.9142 14.4142 22.25 14 22.25H10.5C10.0858 22.25 9.75 21.9142 9.75 21.5V13.75C9.75 12.7737 10.2866 11.4138 11.288 10.3089ZM12.3995 11.3161C11.5884 12.2112 11.25 13.2263 11.25 13.75V20.75H13.25V14.5C13.25 13.7301 13.481 12.9864 13.9587 12.4218C14.447 11.8447 15.1576 11.5 16 11.5C16.9003 11.5 17.603 11.9569 18.0585 12.5366C18.5045 13.1043 18.75 13.8295 18.75 14.5V20.75H20.75V13.75C20.75 13.2263 20.4116 12.2112 19.6005 11.3161C18.8169 10.4515 17.6359 9.75 16 9.75C14.3641 9.75 13.1831 10.4515 12.3995 11.3161Z" fill="#5DE4A3"/>
</svg>
