<svg width="24" height="24" viewBox="0 0 24 24" fill="none" xmlns="http://www.w3.org/2000/svg">
<path fill-rule="evenodd" clip-rule="evenodd" d="M2.25 4.5C2.25 3.25736 3.25736 2.25 4.5 2.25H19.5C20.7427 2.25 21.75 3.25737 21.75 4.5V19.5C21.75 20.7427 20.7427 21.75 19.5 21.75H4.5C3.25737 21.75 2.25 20.7427 2.25 19.5V4.5ZM4.5 3.75C4.08579 3.75 3.75 4.08579 3.75 4.5V19.5C3.75 19.9142 4.08578 20.25 4.5 20.25H19.5C19.9142 20.25 20.25 19.9142 20.25 19.5V4.5C20.25 4.08578 19.9142 3.75 19.5 3.75H4.5Z" fill="#5DE4A3"/>
<path fill-rule="evenodd" clip-rule="evenodd" d="M5.25 8C5.25 7.58579 5.58579 7.25 6 7.25H18C18.4142 7.25 18.75 7.58579 18.75 8V16C18.75 16.4142 18.4142 16.75 18 16.75H6C5.58579 16.75 5.25 16.4142 5.25 16V8ZM6.75 8.75V15.25H17.25V8.75H6.75Z" fill="#5DE4A3"/>
<path fill-rule="evenodd" clip-rule="evenodd" d="M5.37604 7.58396C5.60581 7.23932 6.07146 7.14619 6.4161 7.37595L12.0001 11.0986L17.5841 7.37595C17.9287 7.14619 18.3944 7.23932 18.6241 7.58396C18.8539 7.92861 18.7608 8.39426 18.4161 8.62403L12.4161 12.624C12.1642 12.792 11.836 12.792 11.5841 12.624L5.58405 8.62403C5.23941 8.39426 5.14628 7.92861 5.37604 7.58396Z" fill="#5DE4A3"/>
</svg>
