<svg width="24" height="24" viewBox="0 0 24 24" fill="none" xmlns="http://www.w3.org/2000/svg">
<path d="M2.25 4.5C2.25 3.25736 3.25736 2.25 4.5 2.25H19.5C20.7427 2.25 21.75 3.25737 21.75 4.5V19.5C21.75 20.7427 20.7427 21.75 19.5 21.75H4.5C3.25737 21.75 2.25 20.7427 2.25 19.5V4.5ZM4.5 3.75C4.08579 3.75 3.75 4.08579 3.75 4.5V19.5C3.75 19.9142 4.08578 20.25 4.5 20.25H19.5C19.9142 20.25 20.25 19.9142 20.25 19.5V4.5C20.25 4.08578 19.9142 3.75 19.5 3.75H4.5Z" fill="#5DE4A3"/>
<path d="M12 7.75C14.4235 7.75 16.25 9.50129 16.25 11.5C16.25 13.0587 15.1547 14.453 13.5109 15.0058C13.0431 15.1631 12.5341 15.25 12 15.25C10.9264 15.25 9.75869 15.5075 8.87069 15.7571C9.10492 14.9237 8.81545 14.0789 8.39282 13.4822C7.9823 12.9026 7.75 12.2237 7.75 11.5C7.75 9.50129 9.57652 7.75 12 7.75ZM7.16878 14.3492C7.46367 14.7656 7.5148 15.1829 7.38555 15.4621L6.8194 16.6849C6.69031 16.9637 6.74435 17.2931 6.95578 17.5161C7.16717 17.739 7.49313 17.8104 7.77838 17.6964M7.77838 17.6964L7.78271 17.6947L7.80084 17.6876C7.81746 17.6811 7.843 17.6713 7.87675 17.6585C7.94426 17.6329 8.04445 17.5958 8.17149 17.551C8.42596 17.4612 8.78616 17.3411 9.20604 17.2211C10.0593 16.9774 11.1048 16.75 12 16.75C12.6972 16.75 13.3676 16.6366 13.989 16.4276C16.142 15.7035 17.75 13.8037 17.75 11.5C17.75 8.52811 15.0993 6.25 12 6.25C8.90068 6.25 6.25 8.52811 6.25 11.5C6.25 12.5543 6.59062 13.533 7.16878 14.3492" fill="#5DE4A3"/>
</svg>
